<svg xmlns="http://www.w3.org/2000/svg" width="40.66" height="48.47" viewBox="0 0 40.66 48.47">
  <metadata><?xpacket begin="﻿" id="W5M0MpCehiHzreSzNTczkc9d"?>
<x:xmpmeta xmlns:x="adobe:ns:meta/" x:xmptk="Adobe XMP Core 5.6-c142 79.160924, 2017/07/13-01:06:39        ">
   <rdf:RDF xmlns:rdf="http://www.w3.org/1999/02/22-rdf-syntax-ns#">
      <rdf:Description rdf:about=""/>
   </rdf:RDF>
</x:xmpmeta>
                                                                                                    
                                                                                                    
                                                                                                    
                                                                                                    
                                                                                                    
                                                                                                    
                                                                                                    
                                                                                                    
                                                                                                    
                                                                                                    
                                                                                                    
                                                                                                    
                                                                                                    
                                                                                                    
                                                                                                    
                                                                                                    
                                                                                                    
                                                                                                    
                                                                                                    
                                                                                                    
                           
<?xpacket end="w"?></metadata>
  <path d="M1566.36,1178.17a20.319,20.319,0,0,0-6.26,39.65v5.68h1.57v3.12h1.56v-3.12h6.25v3.12h1.57v-3.12h1.56v-5.68A20.317,20.317,0,0,0,1566.36,1178.17Zm4.69,43.77h-9.38v-3.68a20.271,20.271,0,0,0,9.38,0v3.68Zm-4.69-4.69a18.76,18.76,0,1,1,18.76-18.76A18.78,18.78,0,0,1,1566.36,1217.25Zm-0.78-35.96h1.56v3.13h-1.56v-3.13Zm-7.14,1.91,1.56,2.71-1.35.78-1.57-2.7Zm-6.58,6.01,2.7,1.56-0.78,1.36-2.71-1.57Zm-2.7,8.5h3.13v1.56h-3.13v-1.56Zm1.91,8.7,2.71-1.57,0.78,1.36-2.71,1.56Zm29.79,1.35-2.71-1.56,0.78-1.36,2.71,1.57Zm-0.43-10.05h3.12v1.56h-3.12v-1.56Zm0.43-8.5,0.78,1.36-2.71,1.56-0.78-1.35Zm-6.58-6,1.35,0.78-1.56,2.71-1.36-.78Zm-20.24,19.16,9.58-2.39a3.112,3.112,0,1,0-.39-1.52l-9.57,2.4Zm12.32-5.45a1.565,1.565,0,1,1-1.57,1.57A1.571,1.571,0,0,1,1566.36,1196.92Zm0,17.2a15.533,15.533,0,0,1-11.17-4.7l-1.12,1.09a17.181,17.181,0,0,0,24.57,0l-1.12-1.09A15.51,15.51,0,0,1,1566.36,1214.12Z" transform="translate(-1546.03 -1178.16)"/>
</svg>
