<svg xmlns="http://www.w3.org/2000/svg" width="33" height="46.47" viewBox="0 0 33 46.47">
  <metadata><?xpacket begin="﻿" id="W5M0MpCehiHzreSzNTczkc9d"?>
<x:xmpmeta xmlns:x="adobe:ns:meta/" x:xmptk="Adobe XMP Core 5.6-c142 79.160924, 2017/07/13-01:06:39        ">
   <rdf:RDF xmlns:rdf="http://www.w3.org/1999/02/22-rdf-syntax-ns#">
      <rdf:Description rdf:about=""/>
   </rdf:RDF>
</x:xmpmeta>
                                                                                                    
                                                                                                    
                                                                                                    
                                                                                                    
                                                                                                    
                                                                                                    
                                                                                                    
                                                                                                    
                                                                                                    
                                                                                                    
                                                                                                    
                                                                                                    
                                                                                                    
                                                                                                    
                                                                                                    
                                                                                                    
                                                                                                    
                                                                                                    
                                                                                                    
                                                                                                    
                           
<?xpacket end="w"?></metadata>
  <path d="M215.333,1205.87v-1.54h-1.5v2.4l0.374,0.21a8.288,8.288,0,0,1,4.124,7.14,8.249,8.249,0,0,1-8.57,8.24,8.365,8.365,0,0,1-7.92-8.05,8.253,8.253,0,0,1,4.122-7.33l0.374-.21v-24.14a3.748,3.748,0,1,1,7.5,0v5.25h1.5v-5.25a5.248,5.248,0,1,0-10.5,0v23.28a9.744,9.744,0,0,0-4.5,8.43,9.874,9.874,0,0,0,9.362,9.51c0.129,0.01.257,0.01,0.385,0.01a9.738,9.738,0,0,0,9.741-9.74A9.79,9.79,0,0,0,215.333,1205.87Zm-5.248-25.53a2.253,2.253,0,0,0-2.249,2.25v25.13a6.747,6.747,0,1,0,4.5,0v-25.13A2.253,2.253,0,0,0,210.085,1180.34Zm5.248,33.74a5.232,5.232,0,0,1-1.914,4.05,5.291,5.291,0,0,1-4.4,1.09,5.247,5.247,0,0,1-.248-10.22l0.563-.14v-26.27a0.75,0.75,0,1,1,1.5,0v26.27L211.4,1209A5.242,5.242,0,0,1,215.333,1214.08Zm-1.5-12.75h4.5v1.5h-4.5v-1.5Zm0-3h4.5v1.5h-4.5v-1.5Zm0-2.99h4.5v1.49h-4.5v-1.49Zm0-3h4.5v1.5h-4.5v-1.5Zm0-3h4.5v1.5h-4.5v-1.5Zm-18.74-8.25a4.5,4.5,0,1,0,4.5,4.5A4.5,4.5,0,0,0,195.093,1181.09Zm0,7.5a3,3,0,1,1,3-3A3.005,3.005,0,0,1,195.093,1188.59Zm-0.75-11.25h1.5v2.25h-1.5v-2.25Zm-4.551,1.89,1.59,1.59-1.061,1.06-1.59-1.59Zm-2.945,5.61H189.1v1.5h-2.249v-1.5Zm2.945,7.11-1.06-1.06,1.59-1.59,1.06,1.06Zm4.551-.36h1.5v2.25h-1.5v-2.25Zm5.521-2.29,1.59,1.59-1.061,1.06-1.589-1.59Zm1.226-4.46h2.249v1.5H201.09v-1.5Zm-0.7-5.61,1.06,1.06-1.59,1.59-1.061-1.06Z" transform="translate(-186.844 -1177.34)"/>
</svg>
