<?xml version="1.0" encoding="UTF-8" standalone="no"?>
<svg
   xmlns:dc="http://purl.org/dc/elements/1.1/"
   xmlns:cc="http://creativecommons.org/ns#"
   xmlns:rdf="http://www.w3.org/1999/02/22-rdf-syntax-ns#"
   xmlns:svg="http://www.w3.org/2000/svg"
   xmlns="http://www.w3.org/2000/svg"
   viewBox="0 0 64 64"
   height="64"
   width="64"
   xml:space="preserve"
   id="svg2"
   version="1.1"><metadata
     id="metadata8"><rdf:RDF><cc:Work
         rdf:about=""><dc:format>image/svg+xml</dc:format><dc:type
           rdf:resource="http://purl.org/dc/dcmitype/StillImage" /></cc:Work></rdf:RDF></metadata><defs
     id="defs6"><clipPath
       id="clipPath18"
       clipPathUnits="userSpaceOnUse"><path
         id="path16"
         d="M 0,48 H 48 V 0 H 0 Z" /></clipPath></defs><g
     transform="matrix(1.3333333,0,0,-1.3333333,0,64)"
     id="g10"><g
       id="g12"><g
         clip-path="url(#clipPath18)"
         id="g14"><g
           transform="translate(44.8008,27.1992)"
           id="g20"><path
             id="path22"
             style="fill:#fff;fill-opacity:0.66;fill-rule:nonzero;stroke:none"
             d="m 0,0 -3.727,-0.5 c 0.336,1.586 0.528,3.418 0.528,5.301 0,1.879 -0.192,3.707 -0.528,5.297 L -0.109,9.61 0,9.602 C 0.738,9.602 1.598,8.344 1.598,4.801 1.598,1.258 0.738,0 0,0 m -27.149,-3.602 c 0.106,0.211 0.207,0.434 0.305,0.665 0.035,0.086 0.066,0.176 0.098,0.265 0.07,0.184 0.136,0.371 0.203,0.571 0.031,0.097 0.062,0.199 0.094,0.304 0.062,0.207 0.121,0.422 0.175,0.637 0.024,0.098 0.047,0.188 0.071,0.285 0.074,0.317 0.144,0.645 0.203,0.977 0,0.004 0,0.008 0.004,0.008 0.058,0.336 0.109,0.675 0.156,1.023 0.016,0.106 0.027,0.219 0.039,0.328 0.031,0.246 0.059,0.496 0.078,0.75 0.012,0.125 0.024,0.25 0.035,0.375 0.02,0.254 0.035,0.508 0.047,0.766 0.004,0.113 0.012,0.226 0.016,0.344 0.015,0.367 0.023,0.738 0.023,1.105 0,0.367 -0.008,0.738 -0.023,1.105 -0.004,0.114 -0.012,0.227 -0.016,0.34 -0.012,0.258 -0.027,0.516 -0.047,0.77 -0.011,0.125 -0.019,0.25 -0.035,0.375 -0.019,0.254 -0.047,0.504 -0.078,0.75 -0.012,0.109 -0.023,0.219 -0.039,0.328 -0.047,0.344 -0.098,0.687 -0.156,1.02 C -26,9.492 -26,9.496 -26,9.496 c -0.059,0.336 -0.129,0.66 -0.203,0.977 -0.024,0.098 -0.047,0.191 -0.071,0.285 -0.054,0.219 -0.113,0.434 -0.175,0.641 -0.032,0.101 -0.063,0.203 -0.094,0.304 -0.063,0.196 -0.133,0.387 -0.203,0.571 -0.032,0.086 -0.063,0.179 -0.098,0.261 -0.098,0.235 -0.199,0.457 -0.305,0.664 -0.011,0.02 -0.019,0.047 -0.027,0.067 l 11.746,-1.59 c 0.645,-1.719 1.028,-4.238 1.028,-6.875 0,-2.641 -0.383,-5.16 -1.028,-6.883 l -11.746,-1.582 c 0.008,0.019 0.016,0.043 0.027,0.062 m -12.418,9.903 6.727,4.805 c -0.504,-1.832 -0.762,-4.075 -0.762,-6.305 0,-1.691 0.153,-3.391 0.442,-4.91 z m -3.632,10.5 c 0,1.324 1.074,2.398 2.398,2.398 1.324,0 2.398,-1.074 2.398,-2.398 0,-1.324 -1.074,-2.398 -2.398,-2.398 -1.324,0 -2.398,1.074 -2.398,2.398 m 15.98,-13.012 c -0.004,-0.109 -0.012,-0.211 -0.016,-0.32 -0.007,-0.215 -0.019,-0.43 -0.035,-0.633 -0.008,-0.125 -0.019,-0.238 -0.027,-0.359 -0.016,-0.18 -0.031,-0.364 -0.051,-0.535 -0.012,-0.125 -0.027,-0.243 -0.043,-0.364 -0.019,-0.156 -0.039,-0.316 -0.058,-0.472 -0.02,-0.117 -0.04,-0.231 -0.055,-0.348 -0.024,-0.145 -0.047,-0.289 -0.074,-0.426 -0.02,-0.113 -0.043,-0.219 -0.063,-0.324 -0.027,-0.133 -0.055,-0.266 -0.082,-0.387 -0.023,-0.105 -0.047,-0.207 -0.074,-0.304 -0.027,-0.118 -0.059,-0.235 -0.09,-0.348 -0.023,-0.098 -0.051,-0.188 -0.078,-0.277 -0.031,-0.11 -0.063,-0.211 -0.094,-0.313 -0.027,-0.086 -0.054,-0.168 -0.086,-0.25 -0.031,-0.094 -0.066,-0.187 -0.097,-0.273 -0.032,-0.078 -0.059,-0.153 -0.09,-0.223 -0.031,-0.082 -0.067,-0.164 -0.102,-0.238 -0.031,-0.067 -0.058,-0.133 -0.09,-0.192 -0.035,-0.074 -0.07,-0.14 -0.105,-0.207 -0.031,-0.054 -0.059,-0.109 -0.09,-0.16 -0.035,-0.063 -0.07,-0.117 -0.105,-0.172 -0.032,-0.043 -0.059,-0.09 -0.086,-0.129 -0.036,-0.051 -0.071,-0.094 -0.11,-0.137 -0.023,-0.035 -0.051,-0.07 -0.078,-0.097 -0.039,-0.039 -0.074,-0.071 -0.105,-0.102 -0.028,-0.023 -0.051,-0.047 -0.078,-0.066 -0.024,-0.02 -0.051,-0.031 -0.075,-0.047 l -1.488,1.488 C -31.457,-0.969 -32,1.469 -32,4.801 c 0,4.027 0.793,6.75 1.543,8.008 l 1.039,0.738 c 0.012,-0.004 0.023,-0.012 0.031,-0.016 0.035,-0.019 0.07,-0.039 0.106,-0.062 0.023,-0.02 0.05,-0.043 0.074,-0.066 0.035,-0.032 0.07,-0.063 0.105,-0.102 0.028,-0.031 0.055,-0.066 0.082,-0.098 0.035,-0.043 0.071,-0.09 0.11,-0.136 0.027,-0.043 0.054,-0.086 0.082,-0.129 0.035,-0.055 0.074,-0.11 0.109,-0.172 0.027,-0.051 0.059,-0.106 0.09,-0.16 0.035,-0.067 0.07,-0.137 0.105,-0.207 0.028,-0.063 0.059,-0.125 0.086,-0.192 0.035,-0.078 0.071,-0.156 0.106,-0.242 0.031,-0.07 0.058,-0.144 0.086,-0.219 0.035,-0.09 0.07,-0.179 0.101,-0.277 0.028,-0.078 0.055,-0.164 0.082,-0.246 0.035,-0.102 0.067,-0.207 0.098,-0.313 0.027,-0.089 0.055,-0.183 0.078,-0.277 0.031,-0.113 0.059,-0.23 0.09,-0.348 0.023,-0.101 0.051,-0.199 0.07,-0.304 0.031,-0.125 0.059,-0.254 0.082,-0.387 0.024,-0.105 0.047,-0.215 0.067,-0.324 0.023,-0.141 0.047,-0.285 0.07,-0.43 0.019,-0.113 0.039,-0.227 0.055,-0.348 0.023,-0.152 0.043,-0.312 0.062,-0.472 0.012,-0.117 0.028,-0.239 0.043,-0.36 0.02,-0.175 0.031,-0.355 0.047,-0.539 0.012,-0.117 0.023,-0.234 0.031,-0.355 0.016,-0.207 0.024,-0.422 0.035,-0.637 0.004,-0.105 0.012,-0.207 0.016,-0.316 0.012,-0.328 0.02,-0.664 0.02,-1.012 0,-0.348 -0.008,-0.684 -0.02,-1.012 m 17.617,1.012 c 0,-2.297 -0.289,-4.52 -0.796,-6.203 l -3.266,-0.438 c 0.551,1.825 0.863,4.161 0.863,6.641 0,2.477 -0.308,4.812 -0.863,6.641 L -10.398,11 c 0.507,-1.683 0.796,-3.902 0.796,-6.199 m 4.801,0 c 0,-2.008 -0.226,-3.938 -0.625,-5.531 l -3.25,-0.438 C -8.238,0.555 -8,2.621 -8,4.801 c 0,2.18 -0.238,4.242 -0.676,5.965 l 3.25,-0.438 c 0.399,-1.593 0.625,-3.519 0.625,-5.527 m -36.801,-24 H -40 v -3.199 h -1.602 z m 3.199,-6.399 h -4.796 V -24 h 4.796 z m 38.462,36.797 -29.208,3.95 c -0.144,0.035 -0.297,0.05 -0.453,0.05 -0.773,0 -1.437,-0.464 -1.992,-1.238 L -40,7.957 v 4.926 c 1.824,0.371 3.199,1.988 3.199,3.918 0,2.207 -1.793,4 -4,4 -2.207,0 -4,-1.793 -4,-4 0,-1.93 1.375,-3.547 3.199,-3.918 v -30.481 h -1.597 v -4.8 h -1.602 v -4.801 h 8 v 4.801 h -1.602 v 4.8 H -40 V 4.469 l 7.836,-7.836 c 0.644,-1.363 1.5,-2.231 2.562,-2.231 0.156,0 0.309,0.016 0.453,0.051 l 29.208,3.95 c 1.199,0.027 3.14,0.921 3.14,6.398 0,5.477 -1.941,6.371 -3.14,6.398" /></g></g></g></g></svg>