<?xml version="1.0" encoding="utf-8"?>
<!DOCTYPE svg PUBLIC "-//W3C//DTD SVG 1.1//EN" "http://www.w3.org/Graphics/SVG/1.1/DTD/svg11.dtd">
<svg version="1.1" xmlns="http://www.w3.org/2000/svg" xmlns:xlink="http://www.w3.org/1999/xlink"  height="60" viewBox="0 0 1000 1000" enable-background="new 0 0 1000 1000" xml:space="preserve">
    <defs>
        <style>
          .cls-1 {
            fill: #fff;
            fill-rule: evenodd;
            opacity: 0.6;
            width: 20px
          }
        </style>
      </defs>
    <g><g transform="translate(0.000000,512.000000) scale(0.100000,-0.100000)">
        <path class="cls-1" stroke-width="1" stroke="white" d="M3879.5,5005c-754.7-82.4-1509.4-381.2-2118.6-840.9c-206.9-157.1-645.5-595.7-802.6-802.6C-313.7,1673.9-156.6-670.7,1328-2159.1c634-636,1427.1-1047.8,2312.1-1195.3c254.8-44.1,819.8-59.4,1097.6-30.6c369.7,38.3,942.4,178.1,1143.6,279.7c26.8,13.4,67.1,30.6,92,36.4c36.4,11.5,42.1,7.7,42.1-32.6c0-90,95.8-387,182-563.2c235.6-478.9,639.8-842.8,1122.5-1007.6c934.8-321.8,1927,107.3,2377.2,1024.8c88.1,180.1,155.2,409.9,187.7,637.9c95.8,683.8-254.7,1591.8-1126.3,2911.6l-241.4,364l-1.9,517.2c-3.8,559.3-17.2,683.9-122.6,1093.8C7971,3493.6,6612.9,4713.8,4942.6,4978.2C4701.2,5016.5,4120.8,5031.8,3879.5,5005z M4844.9,4593.2C6413.7,4386.3,7741.2,3145,8055.3,1587.7c47.9-235.6,93.9-653.2,82.4-749c-5.7-53.6-9.6-51.7-91.9,63.2c-47.9,65.1-92,120.7-99.6,120.7s-53.6-53.6-105.4-118.8l-91.9-120.7l-11.5,210.7c-49.8,856.3-398.4,1635.9-1003.7,2241.2c-522.9,522.9-1178.1,852.4-1925.1,969.3c-206.9,32.6-783.5,32.6-986.5,0c-754.7-120.7-1409.8-450.2-1932.8-971.2c-521-522.9-850.5-1178.1-971.2-1932.8c-32.6-203.1-32.6-779.6,0-986.5c208.8-1335.1,1130.2-2400.2,2409.8-2787.1c835.2-252.9,1748.9-172.4,2530.4,222.2c116.9,59.4,214.6,107.3,214.6,105.4c0-1.9-17.2-80.4-38.3-176.2c-21.1-93.9-38.3-199.2-38.3-231.8c0-76.6-24.9-93.8-287.3-197.3c-1112.9-436.8-2371.4-323.8-3398.2,304.6C1611.5-2017.4,1036.8-1322,734.1-542.4C481.3,114.6,423.8,967,586.6,1673.9c116.9,496.1,362,1017.2,683.8,1446.2c149.4,197.3,534.4,582.3,731.7,731.7C2831.7,4474.4,3806.7,4729.2,4844.9,4593.2z M4827.7,3804c819.8-145.6,1547.7-616.8,2001.7-1296.8c258.6-386.9,408-768.1,490.4-1254.7c34.5-203,30.7-756.6-7.7-953.9c-26.8-147.5-42.1-178.1-195.4-409.9c-241.3-364-484.6-772-641.7-1078.5c-93.9-183.9-159-285.4-206.9-325.6c-350.5-298.8-848.6-544-1289.2-639.8c-1101.4-235.6-2231.6,134.1-2955.7,969.3C1534.8-622.9,1282,59.1,1282,815.7c0,404.2,59.4,722.2,195.4,1078.4c356.3,919.5,1143.6,1620.5,2086,1856.2C3969.5,3851.8,4438.8,3871,4827.7,3804z M8128.1,126.1c492.3-683.9,934.8-1440.5,1153.2-1965.3c250.9-609.2,287.3-1061.2,114.9-1515.2c-141.8-381.2-454-720.2-816-890.7c-226-105.4-411.8-139.8-697.3-130.2c-214.5,7.6-272,17.2-415.7,67c-557.4,193.5-973.1,689.6-1068.9,1271.9c-82.4,509.6,113,1145.5,622.5,2028.6c316.1,551.7,890.7,1394.5,931,1369.6C7959.5,356,8040,250.6,8128.1,126.1z"/>
        <path class="cls-1" stroke-width="1" stroke="white" d="M4109.3,3252.3c-810.3-82.4-1501.8-519.1-1909.8-1204.9c-132.2-220.3-250.9-549.8-304.6-833.3c-34.5-180.1-28.7-664.7,9.6-852.4c97.7-484.6,316.1-906,645.5-1239.4c153.2-157.1,168.6-168.6,243.3-168.6c143.7,0,239.4,149.4,172.4,273.9c-11.5,23-80.4,107.3-155.2,185.8c-369.7,396.5-549.8,856.2-549.8,1404.1c0,871.6,557.4,1655,1379.2,1934.7c256.7,88.1,457.8,114.9,756.6,103.4c413.8-15.3,724.1-116.9,1070.8-346.7c272-182,321.8-101.5-432.9-693.4l-657-513.4l-120.7-15.3c-139.8-17.2-224.1-63.2-319.9-174.3c-155.2-180.1-141.7-473.1,28.7-641.7c279.7-281.6,747.1-141.8,825.6,247.1c21.1,109.2,23,109.2,601.5,699.2c513.4,524.9,582.3,588.1,609.1,565.1c57.5-46,260.5-486.5,300.7-649.4c101.5-409.9,78.5-875.4-61.3-1239.4c-101.5-262.4-229.9-469.3-417.6-668.5c-191.6-206.9-220.3-264.4-170.5-362.1c36.4-70.9,99.6-109.2,180.1-109.2c70.9,0,88.1,11.5,239.5,168.6c327.5,331.4,542.1,737.5,647.4,1218.3c46,218.4,46,726-1.9,950.1c-69,319.9-203.1,637.9-369.7,877.3l-84.3,122.6l93.9,103.4c103.4,113,132.2,191.6,95.8,260.5c-65.1,122.6-180.1,124.5-337.1,7.7l-111.1-84.3l-76.6,70.9c-287.3,262.4-708.8,473.1-1116.8,555.5C4628.4,3242.7,4258.7,3267.6,4109.3,3252.3z"/>
        <path class="cls-1" stroke-width="1" stroke="white" d="M7670.3-686.1c-44.1-88.1-197.3-365.9-342.9-618.7c-459.7-806.4-567-1061.2-580.4-1383c-19.2-467.4,187.7-896.5,553.6-1143.6c55.6-38.3,103.4-65.1,107.3-61.3c3.8,3.8-13.4,84.3-40.2,176.2c-70.9,251-122.6,530.6-137.9,735.6c-23,329.5,63.2,770.1,316.1,1634C7789.1-513.7,7810.2-400.6,7670.3-686.1z"/></g></g>
</svg>
