<svg xmlns="http://www.w3.org/2000/svg" viewBox="0 0 40 40">
  <path style="line-height:normal;font-variant-ligatures:normal;font-variant-position:normal;font-variant-caps:normal;font-variant-numeric:normal;font-variant-alternates:normal;font-feature-settings:normal;text-indent:0;text-align:start;text-decoration-line:none;text-decoration-style:solid;text-decoration-color:#000;text-transform:none;text-orientation:mixed;shape-padding:0;isolation:auto;mix-blend-mode:normal" d="M21.6 8.1h-1.2a8.6 8.6 0 00-7.7 8.2l-1.1-.1a8.6 8.6 0 10-.6 17.2 1.6 1.6 0 00.1 0 1.6 1.6 0 00.1 0h21a1.6 1.6 0 00.2 0A7.9 7.9 0 0034.8 18a1.6 1.6 0 00-.7 0 1.6 1.6 0 00-.4 3.1c2 .8 3.3 3 3 5.1a4.5 4.5 0 01-4.5 3.8h-21a1.6 1.6 0 00-.2 0 5.3 5.3 0 112-10.3 1.6 1.6 0 00.3 0 1.6 1.6 0 103-1.1c-1-2.6.1-5.4 2.6-6.7a5.3 5.3 0 016.9 1.8 5.3 5.3 0 01-1 7 1.6 1.6 0 102 2.6A8.6 8.6 0 0021.7 8z" fill="#ececec"/>
  <path style="line-height:normal;font-variant-ligatures:normal;font-variant-position:normal;font-variant-caps:normal;font-variant-numeric:normal;font-variant-alternates:normal;font-feature-settings:normal;text-indent:0;text-align:start;text-decoration-line:none;text-decoration-style:solid;text-decoration-color:#000;text-transform:none;text-orientation:mixed;shape-padding:0;isolation:auto;mix-blend-mode:normal" d="M18.4 6.6c-3 .2-5.7 2-7.1 4.6a1.6 1.6 0 102.9 1.5 5.3 5.3 0 118.2 6.6 1.6 1.6 0 102 2.5 8.6 8.6 0 00-4.7-15.1h-1.3zm-9.5 8A8.6 8.6 0 000 22.8 8.6 8.6 0 0015.8 28a1.6 1.6 0 10-2.7-1.8A5.3 5.3 0 013.3 23a5.3 5.3 0 0110-2.1 1.6 1.6 0 103-1.5 8.6 8.6 0 00-7.4-4.7zm21.8 1.7a1.6 1.6 0 00-.2 3.2c2.4.4 4 2.5 3.8 4.9a4.5 4.5 0 01-4.5 4.2H18.4a1.6 1.6 0 100 3.3h11.3a1.6 1.6 0 00.2 0c4-.1 7.3-3.2 7.7-7.2.3-4.1-2.6-7.8-6.6-8.4a1.6 1.6 0 00-.3 0z" fill="#800033"/>
</svg>
